<svg xmlns="http://www.w3.org/2000/svg" viewBox="0 0 100 100">
  <rect width="100" height="100" rx="22" fill="#EB5634"/>
  <path d="M50 50 L51.03 48.97 L52.6 49.59 L53.38 51.4 L53.1 53.1 L51.63 55 L49.04 56.06 L46.41 55.86 L44.33 54.84 L42.22 52.53 L41.05 48.58 L42.77 42.77 L45.81 39.87 L50 38.31 L54.75 38.52 L59.3 40.7 L62.83 44.69 L64.62 50 L64.18 55.87 L61.37 61.37 L56.43 65.53 L50 67.54 L43.01 66.88 L36.56 63.44 L31.77 57.55 L29.54 50 L30.42 41.89 L34.5 34.5 L41.33 29.07 L50 26.62 L59.23 27.72 L67.57 32.43 L73.63 40.21 L76.31 50 L74.98 60.35 L69.64 69.64 L60.91 76.33 L50 79.23 L38.53 77.68 L28.3 71.7 L20.97 62.03 L17.85 50 L19.62 37.42 L26.23 26.23 L36.86 18.27 L50 14.92 L63.7 16.92 L75.84 24.16 L84.43 35.74 L88 50"
    fill="none" stroke="#082E56" stroke-width="6.5" stroke-linecap="round" stroke-linejoin="round"/>
  <circle cx="86" cy="44" r="2.2" fill="#082E56"/>
</svg>
