<svg xmlns="http://www.w3.org/2000/svg" viewBox="0 0 200 200">
<rect width="200" height="200" rx="44" fill="#F1500F"/>
<g transform="translate(100 100) scale(0.9) translate(-100 -100)">
<path d="M 100.03 105.31 L 99.84 105.58 L 99.66 105.82 L 99.35 105.96 L 98.98 106.02 L 98.63 106.08 L 98.29 106.14 L 97.95 106.18 L 97.62 106.21 L 97.28 106.24 L 96.95 106.25 L 96.62 106.25 L 96.29 106.24 L 95.96 106.21 L 95.62 106.18 L 95.29 106.13 L 94.95 106.07 L 94.62 105.99 L 94.28 105.9 L 93.94 105.8 L 93.6 105.68 L 93.27 105.55 L 92.93 105.4 L 92.6 105.23 L 92.26 105.05 L 91.93 104.86 L 91.61 104.64 L 91.28 104.42 L 90.97 104.17 L 90.65 103.91 L 90.35 103.63 L 90.05 103.33 L 89.75 103.02 L 89.47 102.69 L 89.19 102.35 L 88.93 101.98 L 88.68 101.61 L 88.43 101.21 L 88.2 100.8 L 87.99 100.37 L 87.79 99.93 L 87.6 99.48 L 87.43 99.01 L 87.28 98.52 L 87.15 98.02 L 87.03 97.51 L 86.93 96.99 L 86.86 96.46 L 86.8 95.92 L 86.77 95.36 L 86.76 94.8 L 86.77 94.23 L 86.8 93.65 L 86.86 93.07 L 86.95 92.48 L 87.06 91.88 L 87.2 91.29 L 87.36 90.69 L 87.55 90.09 L 87.76 89.49 L 88.01 88.89 L 88.28 88.29 L 88.58 87.7 L 88.91 87.12 L 89.26 86.54 L 89.65 85.96 L 90.06 85.4 L 90.5 84.85 L 90.96 84.31 L 91.46 83.78 L 91.98 83.26 L 92.53 82.77 L 93.11 82.28 L 93.71 81.82 L 94.34 81.38 L 94.99 80.95 L 95.67 80.55 L 96.37 80.18 L 97.09 79.82 L 97.84 79.5 L 98.61 79.2 L 99.39 78.93 L 100.2 78.69 L 101.02 78.47 L 101.87 78.29 L 102.72 78.15 L 103.59 78.03 L 104.48 77.95 L 105.38 77.91 L 106.28 77.9 L 107.2 77.93 L 108.12 78.0 L 109.06 78.1 L 109.99 78.24 L 110.93 78.43 L 111.87 78.65 L 112.8 78.91 L 113.74 79.22 L 114.67 79.56 L 115.6 79.94 L 116.52 80.37 L 117.43 80.84 L 118.33 81.35 L 119.22 81.9 L 120.09 82.49 L 120.94 83.12 L 121.78 83.79 L 122.6 84.5 L 123.39 85.25 L 124.16 86.03 L 124.91 86.86 L 125.63 87.72 L 126.32 88.62 L 126.98 89.55 L 127.6 90.52 L 128.2 91.52 L 128.75 92.55 L 129.27 93.62 L 129.75 94.71 L 130.19 95.83 L 130.59 96.98 L 130.94 98.15 L 131.25 99.34 L 131.52 100.56 L 131.74 101.8 L 131.91 103.05 L 132.02 104.32 L 132.09 105.61 L 132.11 106.91 L 132.08 108.21 L 131.99 109.53 L 131.85 110.85 L 131.65 112.18 L 131.41 113.5 L 131.1 114.83 L 130.74 116.15 L 130.32 117.47 L 129.85 118.78 L 129.32 120.08 L 128.74 121.37 L 128.1 122.64 L 127.4 123.9 L 126.65 125.14 L 125.85 126.35 L 124.99 127.54 L 124.07 128.7 L 123.11 129.84 L 122.09 130.94 L 121.02 132.01 L 119.9 133.05 L 118.73 134.04 L 117.52 135.0 L 116.26 135.91 L 114.95 136.78 L 113.6 137.6 L 112.21 138.37 L 110.78 139.09 L 109.31 139.76 L 107.81 140.37 L 106.27 140.93 L 104.7 141.43 L 103.1 141.86 L 101.48 142.24 L 99.83 142.56 L 98.15 142.8 L 96.46 142.99 L 94.75 143.11 L 93.02 143.16 L 91.29 143.14 L 89.54 143.05 L 87.79 142.89 L 86.03 142.66 L 84.27 142.36 L 82.52 141.98 L 80.76 141.53 L 79.02 141.01 L 77.29 140.42 L 75.57 139.76 L 73.87 139.02 L 72.19 138.21 L 70.53 137.33 L 68.9 136.38 L 67.29 135.35 L 65.72 134.26 L 64.19 133.1 L 62.69 131.87 L 61.23 130.58 L 59.82 129.22 L 58.45 127.79 L 57.14 126.31 L 55.87 124.76 L 54.66 123.15 L 53.51 121.49 L 52.42 119.77 L 51.39 118.01 L 50.43 116.19 L 49.54 114.32 L 48.71 112.41 L 47.96 110.45 L 47.28 108.45 L 46.68 106.42 L 46.15 104.35 L 45.71 102.26 L 45.34 100.13 L 45.06 97.98 L 44.87 95.8 L 44.76 93.61 L 44.73 91.4 L 44.8 89.18 L 44.95 86.96 L 45.19 84.72 L 45.52 82.49 L 45.95 80.26 L 46.46 78.03 L 47.07 75.82 L 47.76 73.61 L 48.55 71.43 L 49.43 69.26 L 50.39 67.12 L 51.45 65.01 L 52.6 62.93 L 53.83 60.88 L 55.15 58.88 L 56.56 56.92 L 58.05 55.0 L 59.63 53.14 L 61.29 51.32 L 63.02 49.57 L 64.84 47.88 L 66.72 46.25 L 68.69 44.68 L 70.72 43.19 L 72.82 41.77 L 74.99 40.43 L 77.22 39.17 L 79.51 37.99 L 81.86 36.89 L 84.27 35.88 L 86.72 34.96 L 89.22 34.14 L 91.77 33.4 L 94.35 32.77 L 96.98 32.23 L 99.63 31.8 L 102.32 31.46 L 105.03 31.23 L 107.76 31.1 L 110.52 31.08 L 113.28 31.16 L 116.06 31.35 L 118.84 31.65 L 121.63 32.06 L 124.41 32.57 L 127.19 33.19 L 129.97 33.91 L 132.73 34.74 L 135.48 35.67 L 138.22 36.69 L 140.9 37.89 L 143.47 39.33 L 146.01 40.89 L 147.16 39.01 L 144.58 37.43 L 141.93 35.95 L 139.3 34.44 L 136.65 32.99 L 133.93 31.66 L 131.16 30.45 L 128.34 29.38 L 125.48 28.42 L 122.59 27.59 L 119.67 26.88 L 116.74 26.3 L 113.78 25.84 L 110.82 25.5 L 107.85 25.28 L 104.87 25.19 L 101.91 25.22 L 98.95 25.37 L 96.01 25.63 L 93.09 26.02 L 90.19 26.52 L 87.33 27.14 L 84.49 27.87 L 81.7 28.72 L 78.95 29.67 L 76.25 30.73 L 73.59 31.9 L 71.0 33.17 L 68.46 34.53 L 65.99 36.0 L 63.58 37.56 L 61.24 39.21 L 58.98 40.95 L 56.8 42.78 L 54.7 44.68 L 52.68 46.67 L 50.74 48.72 L 48.9 50.85 L 47.15 53.04 L 45.49 55.3 L 43.93 57.61 L 42.47 59.98 L 41.11 62.39 L 39.85 64.86 L 38.69 67.36 L 37.63 69.9 L 36.69 72.47 L 35.85 75.07 L 35.11 77.7 L 34.48 80.34 L 33.97 83.0 L 33.56 85.67 L 33.26 88.35 L 33.06 91.02 L 32.98 93.7 L 33.0 96.36 L 33.13 99.02 L 33.36 101.66 L 33.7 104.28 L 34.14 106.87 L 34.69 109.44 L 35.33 111.97 L 36.07 114.47 L 36.91 116.93 L 37.85 119.35 L 38.88 121.71 L 39.99 124.03 L 41.2 126.29 L 42.49 128.49 L 43.86 130.64 L 45.32 132.71 L 46.85 134.72 L 48.45 136.67 L 50.13 138.53 L 51.87 140.33 L 53.68 142.04 L 55.54 143.68 L 57.47 145.23 L 59.44 146.7 L 61.47 148.08 L 63.55 149.38 L 65.66 150.58 L 67.82 151.7 L 70.01 152.73 L 72.23 153.66 L 74.47 154.5 L 76.75 155.24 L 79.04 155.89 L 81.34 156.45 L 83.66 156.91 L 85.98 157.27 L 88.31 157.54 L 90.63 157.72 L 92.96 157.8 L 95.27 157.79 L 97.57 157.68 L 99.86 157.48 L 102.13 157.19 L 104.37 156.82 L 106.59 156.35 L 108.77 155.8 L 110.93 155.16 L 113.05 154.44 L 115.12 153.64 L 117.16 152.75 L 119.15 151.79 L 121.09 150.76 L 122.97 149.65 L 124.81 148.48 L 126.58 147.23 L 128.3 145.92 L 129.95 144.55 L 131.54 143.12 L 133.06 141.63 L 134.52 140.09 L 135.9 138.5 L 137.22 136.86 L 138.45 135.18 L 139.62 133.46 L 140.71 131.7 L 141.72 129.91 L 142.65 128.09 L 143.5 126.24 L 144.28 124.36 L 144.97 122.47 L 145.58 120.56 L 146.12 118.63 L 146.57 116.7 L 146.94 114.75 L 147.23 112.81 L 147.43 110.86 L 147.56 108.92 L 147.61 106.99 L 147.58 105.06 L 147.47 103.15 L 147.29 101.26 L 147.02 99.38 L 146.69 97.53 L 146.28 95.7 L 145.8 93.9 L 145.25 92.14 L 144.63 90.4 L 143.94 88.7 L 143.19 87.05 L 142.38 85.43 L 141.51 83.86 L 140.58 82.33 L 139.59 80.86 L 138.55 79.43 L 137.46 78.05 L 136.31 76.73 L 135.13 75.47 L 133.9 74.26 L 132.63 73.12 L 131.32 72.03 L 129.97 71.0 L 128.6 70.04 L 127.19 69.14 L 125.76 68.3 L 124.3 67.53 L 122.83 66.83 L 121.33 66.19 L 119.82 65.62 L 118.3 65.12 L 116.77 64.68 L 115.23 64.31 L 113.69 64.0 L 112.15 63.76 L 110.61 63.59 L 109.08 63.48 L 107.55 63.44 L 106.04 63.46 L 104.54 63.54 L 103.05 63.68 L 101.58 63.89 L 100.14 64.16 L 98.72 64.48 L 97.32 64.86 L 95.95 65.29 L 94.61 65.78 L 93.3 66.32 L 92.03 66.91 L 90.8 67.55 L 89.6 68.24 L 88.44 68.96 L 87.32 69.74 L 86.25 70.55 L 85.22 71.4 L 84.24 72.28 L 83.3 73.2 L 82.41 74.15 L 81.57 75.13 L 80.78 76.13 L 80.05 77.16 L 79.36 78.21 L 78.72 79.27 L 78.14 80.36 L 77.61 81.45 L 77.13 82.56 L 76.71 83.68 L 76.34 84.81 L 76.02 85.94 L 75.75 87.07 L 75.54 88.2 L 75.38 89.32 L 75.26 90.44 L 75.2 91.56 L 75.19 92.66 L 75.23 93.75 L 75.32 94.83 L 75.45 95.89 L 75.63 96.93 L 75.85 97.95 L 76.12 98.95 L 76.43 99.92 L 76.78 100.87 L 77.16 101.79 L 77.59 102.68 L 78.05 103.53 L 78.54 104.36 L 79.06 105.15 L 79.61 105.91 L 80.2 106.63 L 80.8 107.32 L 81.43 107.96 L 82.09 108.57 L 82.76 109.14 L 83.45 109.66 L 84.15 110.15 L 84.87 110.59 L 85.6 110.99 L 86.33 111.35 L 87.07 111.67 L 87.82 111.95 L 88.57 112.18 L 89.32 112.37 L 90.06 112.52 L 90.8 112.63 L 91.53 112.69 L 92.26 112.72 L 92.97 112.71 L 93.67 112.66 L 94.35 112.57 L 95.01 112.44 L 95.65 112.28 L 96.27 112.09 L 96.87 111.86 L 97.44 111.6 L 97.98 111.31 L 98.49 110.99 L 98.97 110.65 L 99.41 110.28 L 99.82 109.89 L 100.18 109.48 L 100.51 109.05 L 100.78 108.6 L 101.01 108.13 L 101.18 107.65 L 101.36 107.21 L 101.63 106.87 L 101.85 106.54 Z" fill="#0A2A4C"/><path d="M 100.56 105.67 L 100.36 105.96 L 100.15 106.23 L 99.88 106.45 L 99.57 106.63 L 99.25 106.81 L 98.93 106.98 L 98.6 107.14 L 98.25 107.28 L 97.9 107.41 L 97.54 107.53 L 97.16 107.63 L 96.78 107.71 L 96.39 107.78 L 95.98 107.83 L 95.57 107.86 L 95.16 107.87 L 94.73 107.86 L 94.3 107.84 L 93.86 107.79 L 93.42 107.72 L 92.97 107.63 L 92.53 107.51 L 92.08 107.38 L 91.63 107.22 L 91.18 107.04 L 90.73 106.83 L 90.28 106.6 L 89.84 106.35 L 89.4 106.07 L 88.97 105.77 L 88.54 105.44 L 88.13 105.09 L 87.72 104.71 L 87.33 104.32 L 86.94 103.89 L 86.58 103.45 L 86.22 102.98 L 85.88 102.49 L 85.56 101.98 L 85.26 101.45 L 84.97 100.89 L 84.71 100.32 L 84.47 99.73 L 84.25 99.12 L 84.06 98.49 L 83.89 97.84 L 83.74 97.18 L 83.63 96.5 L 83.54 95.82 L 83.48 95.11 L 83.45 94.4 L 83.45 93.68 L 83.48 92.95 L 83.54 92.21 L 83.64 91.47 L 83.77 90.72 L 83.93 89.96 L 84.13 89.21 L 84.36 88.46 L 84.62 87.71 L 84.92 86.96 L 85.26 86.21 L 85.63 85.47 L 86.04 84.74 L 86.48 84.02 L 86.95 83.31 L 87.47 82.62 L 88.01 81.94 L 88.59 81.27 L 89.21 80.62 L 89.85 79.99 L 90.54 79.38 L 91.25 78.8 L 91.99 78.24 L 92.77 77.7 L 93.57 77.19 L 94.41 76.71 L 95.27 76.27 L 96.15 75.85 L 97.07 75.46 L 98.01 75.11 L 98.97 74.8 L 99.95 74.53 L 100.95 74.29 L 101.97 74.09 L 103.01 73.93 L 104.07 73.82 L 105.13 73.74 L 106.21 73.71 L 107.3 73.73 L 108.4 73.79 L 109.51 73.89 L 110.62 74.04 L 111.73 74.24 L 112.84 74.49 L 113.95 74.78 L 115.06 75.13 L 116.17 75.52 L 117.26 75.96 L 118.35 76.44 L 119.42 76.98 L 120.48 77.56 L 121.53 78.2 L 122.55 78.88 L 123.56 79.6 L 124.55 80.38 L 125.51 81.2 L 126.44 82.06 L 127.34 82.97 L 128.22 83.92 L 129.06 84.92 L 129.86 85.95 L 130.63 87.03 L 131.37 88.15 L 132.06 89.3 L 132.7 90.49 L 133.31 91.71 L 133.87 92.97 L 134.38 94.26 L 134.84 95.57 L 135.25 96.92 L 135.61 98.29 L 135.92 99.68 L 136.17 101.1 L 136.37 102.53 L 136.5 103.98 L 136.58 105.45 L 136.61 106.93 L 136.57 108.42 L 136.47 109.92 L 136.31 111.42 L 136.09 112.92 L 135.8 114.43 L 135.45 115.93 L 135.04 117.43 L 134.57 118.92 L 134.03 120.4 L 133.44 121.87 L 132.77 123.32 L 132.05 124.75 L 131.26 126.16 L 130.41 127.55 L 129.5 128.91 L 128.53 130.24 L 127.5 131.55 L 126.42 132.81 L 125.27 134.04 L 124.07 135.23 L 122.82 136.38 L 121.51 137.49 L 120.15 138.55 L 118.74 139.55 L 117.28 140.51 L 115.77 141.42 L 114.22 142.26 L 112.63 143.05 L 111.0 143.78 L 109.33 144.45 L 107.62 145.06 L 105.88 145.59 L 104.11 146.07 L 102.32 146.47 L 100.49 146.8 L 98.65 147.06 L 96.78 147.25 L 94.9 147.36 L 93.0 147.4 L 91.1 147.36 L 89.18 147.25 L 87.26 147.06 L 85.34 146.79 L 83.42 146.44 L 81.51 146.01 L 79.6 145.51 L 77.7 144.92 L 75.82 144.26 L 73.96 143.52 L 72.11 142.7 L 70.3 141.8 L 68.5 140.82 L 66.74 139.77 L 65.02 138.64 L 63.33 137.44 L 61.68 136.17 L 60.08 134.82 L 58.52 133.4 L 57.01 131.92 L 55.55 130.37 L 54.15 128.75 L 52.81 127.07 L 51.53 125.32 L 50.32 123.52 L 49.17 121.66 L 48.09 119.75 L 47.08 117.79 L 46.15 115.78 L 45.29 113.72 L 44.51 111.62 L 43.81 109.48 L 43.2 107.3 L 42.67 105.09 L 42.23 102.84 L 41.87 100.57 L 41.6 98.28 L 41.43 95.97 L 41.34 93.64 L 41.35 91.29 L 41.45 88.94 L 41.65 86.58 L 41.94 84.22 L 42.32 81.87 L 42.8 79.52 L 43.38 77.17 L 44.06 74.85 L 44.82 72.54 L 45.69 70.25 L 46.65 67.98 L 47.7 65.75 L 48.85 63.55 L 50.08 61.39 L 51.41 59.26 L 52.83 57.19 L 54.34 55.16 L 55.93 53.18 L 57.61 51.26 L 59.37 49.4 L 61.22 47.6 L 63.14 45.87 L 65.14 44.21 L 67.21 42.62 L 69.35 41.11 L 71.56 39.67 L 73.83 38.32 L 76.17 37.06 L 78.57 35.88 L 81.02 34.8 L 83.52 33.8 L 86.07 32.91 L 88.67 32.11 L 91.31 31.41 L 93.99 30.81 L 96.7 30.32 L 99.44 29.93 L 102.2 29.65 L 104.99 29.48 L 107.79 29.41 L 110.6 29.46 L 113.43 29.62 L 116.26 29.89 L 119.08 30.27 L 121.91 30.76 L 124.72 31.37 L 127.53 32.08 L 130.31 32.91 L 133.08 33.85 L 135.82 34.89 L 138.53 36.04 L 141.2 37.33 L 143.79 38.78 L 146.34 40.34 L 146.82 39.55 L 144.26 37.98 L 141.63 36.51 L 138.99 35.09 L 136.31 33.76 L 133.58 32.55 L 130.81 31.46 L 128.01 30.48 L 125.17 29.62 L 122.31 28.89 L 119.43 28.27 L 116.54 27.76 L 113.64 27.38 L 110.73 27.12 L 107.82 26.97 L 104.92 26.94 L 102.03 27.03 L 99.15 27.23 L 96.29 27.55 L 93.46 27.98 L 90.65 28.52 L 87.88 29.17 L 85.14 29.93 L 82.44 30.79 L 79.79 31.76 L 77.19 32.83 L 74.65 34.0 L 72.15 35.27 L 69.72 36.63 L 67.36 38.09 L 65.06 39.63 L 62.83 41.25 L 60.68 42.96 L 58.6 44.75 L 56.61 46.61 L 54.69 48.54 L 52.86 50.54 L 51.12 52.61 L 49.47 54.73 L 47.91 56.92 L 46.44 59.15 L 45.07 61.44 L 43.8 63.76 L 42.62 66.13 L 41.55 68.54 L 40.57 70.98 L 39.7 73.44 L 38.92 75.93 L 38.25 78.44 L 37.69 80.97 L 37.22 83.5 L 36.86 86.04 L 36.6 88.59 L 36.45 91.13 L 36.39 93.67 L 36.44 96.2 L 36.59 98.72 L 36.84 101.22 L 37.18 103.69 L 37.63 106.14 L 38.16 108.56 L 38.8 110.95 L 39.52 113.31 L 40.34 115.62 L 41.24 117.89 L 42.23 120.11 L 43.3 122.28 L 44.45 124.4 L 45.69 126.46 L 47.0 128.47 L 48.38 130.41 L 49.83 132.28 L 51.35 134.09 L 52.94 135.83 L 54.58 137.5 L 56.29 139.09 L 58.05 140.61 L 59.86 142.05 L 61.72 143.41 L 63.63 144.69 L 65.57 145.88 L 67.55 147.0 L 69.57 148.02 L 71.62 148.96 L 73.7 149.82 L 75.79 150.59 L 77.91 151.27 L 80.04 151.86 L 82.19 152.36 L 84.34 152.77 L 86.5 153.1 L 88.66 153.34 L 90.82 153.49 L 92.98 153.55 L 95.12 153.53 L 97.25 153.42 L 99.36 153.23 L 101.46 152.95 L 103.53 152.59 L 105.58 152.15 L 107.59 151.63 L 109.58 151.03 L 111.53 150.36 L 113.44 149.61 L 115.31 148.79 L 117.14 147.9 L 118.92 146.94 L 120.65 145.92 L 122.33 144.83 L 123.95 143.68 L 125.52 142.48 L 127.04 141.21 L 128.49 139.9 L 129.88 138.53 L 131.21 137.12 L 132.47 135.66 L 133.67 134.16 L 134.8 132.62 L 135.86 131.05 L 136.85 129.44 L 137.77 127.8 L 138.62 126.14 L 139.39 124.45 L 140.09 122.74 L 140.72 121.02 L 141.28 119.28 L 141.76 117.53 L 142.17 115.77 L 142.5 114.01 L 142.77 112.24 L 142.95 110.48 L 143.07 108.72 L 143.12 106.96 L 143.09 105.22 L 142.99 103.49 L 142.83 101.78 L 142.59 100.08 L 142.29 98.41 L 141.92 96.76 L 141.49 95.13 L 141.0 93.54 L 140.44 91.98 L 139.83 90.45 L 139.16 88.95 L 138.43 87.5 L 137.65 86.08 L 136.81 84.71 L 135.93 83.38 L 135.0 82.09 L 134.03 80.86 L 133.01 79.67 L 131.95 78.53 L 130.85 77.45 L 129.72 76.42 L 128.55 75.44 L 127.35 74.52 L 126.13 73.65 L 124.88 72.84 L 123.6 72.09 L 122.31 71.39 L 121.0 70.76 L 119.67 70.18 L 118.33 69.66 L 116.98 69.2 L 115.62 68.81 L 114.25 68.47 L 112.89 68.18 L 111.52 67.96 L 110.16 67.8 L 108.8 67.69 L 107.45 67.64 L 106.11 67.65 L 104.78 67.71 L 103.47 67.82 L 102.17 67.99 L 100.89 68.21 L 99.63 68.48 L 98.39 68.81 L 97.18 69.18 L 96.0 69.59 L 94.84 70.06 L 93.72 70.56 L 92.62 71.11 L 91.56 71.7 L 90.54 72.33 L 89.55 72.99 L 88.6 73.69 L 87.68 74.42 L 86.81 75.18 L 85.98 75.97 L 85.19 76.79 L 84.44 77.63 L 83.74 78.5 L 83.08 79.39 L 82.46 80.29 L 81.89 81.21 L 81.37 82.15 L 80.89 83.1 L 80.45 84.05 L 80.06 85.02 L 79.72 85.99 L 79.42 86.97 L 79.17 87.94 L 78.97 88.92 L 78.8 89.89 L 78.69 90.86 L 78.61 91.82 L 78.58 92.78 L 78.59 93.72 L 78.64 94.65 L 78.73 95.57 L 78.86 96.47 L 79.03 97.36 L 79.23 98.22 L 79.47 99.07 L 79.75 99.89 L 80.06 100.69 L 80.4 101.47 L 80.77 102.22 L 81.17 102.94 L 81.59 103.64 L 82.04 104.31 L 82.52 104.94 L 83.02 105.55 L 83.53 106.12 L 84.07 106.66 L 84.62 107.17 L 85.19 107.64 L 85.78 108.08 L 86.37 108.49 L 86.97 108.86 L 87.59 109.19 L 88.2 109.5 L 88.83 109.76 L 89.45 109.99 L 90.08 110.19 L 90.7 110.35 L 91.32 110.48 L 91.94 110.58 L 92.55 110.64 L 93.15 110.67 L 93.75 110.67 L 94.33 110.64 L 94.9 110.57 L 95.45 110.48 L 95.99 110.36 L 96.51 110.21 L 97.01 110.04 L 97.49 109.84 L 97.95 109.62 L 98.38 109.37 L 98.79 109.11 L 99.18 108.82 L 99.54 108.52 L 99.86 108.2 L 100.16 107.87 L 100.42 107.52 L 100.65 107.16 L 100.87 106.81 L 101.11 106.5 L 101.32 106.18 Z" fill="#2E93C8" opacity="0.9"/><circle cx="153.6" cy="36.9" r="2.3" fill="#0A2A4C"/><circle cx="158.6" cy="42.9" r="1.3" fill="#0A2A4C"/>
</g></svg>